<svg xmlns="http://www.w3.org/2000/svg" width="100" height="100" style=""><rect id="backgroundrect" width="100%" height="100%" x="0" y="0" fill="none" stroke="none"/><defs><style>.cls-1{fill:#527fff;}.cls-2{fill:#fff;}.cls-3{fill:none;}.cls-4{fill:#232f3e;}</style></defs><title>Database_dark-bg</title><g class="currentLayer" style=""><title>Layer 1</title><rect class="cls-1" x="0.46919251875806367" y="0.46919251875806367" width="99.0616147304504" height="99.0616147304504" id="svg_1"/><path class="cls-4" d="M50.00000019557682,12.25931970177271 c-15.779679365943338,0 -27.8195747221581,4.659522619097887 -27.8195747221581,10.85770379777327 v53.70789311732767 C22.180425473418712,83.0811603827029 34.22032082963348,87.74068300180079 50.00000019557682,87.74068300180079 s27.8195747221581,-4.659522619097887 27.8195747221581,-10.85770379777327 v-53.70789311732767 C77.81957491773493,16.9188423208706 65.85857795834985,12.25931970177271 50.00000019557682,12.25931970177271 zm0,2.9031293576933876 c14.533084696033814,0 24.663638848969438,4.195021921866946 24.663638848969438,7.954574440079883 S64.53308489161063,31.12966052677973 50.00000019557682,31.12966052677973 s-24.663638848969438,-4.180506275078478 -24.663638848969438,-7.940058793291414 S35.466915499543,15.162449059466098 50.00000019557682,15.162449059466098 zm0,69.6751045846413 c-14.533084696033814,0 -24.663638848969438,-4.195021921866946 -24.663638848969438,-7.954574440079883 v-11.322204495004213 C29.912468362730948,69.00098299788998 38.95422463941648,71.25090825010236 50.00000019557682,71.25090825010236 s20.08753183284587,-2.249925252212376 24.663638848969438,-5.69013354107904 v11.322204495004213 C74.66363904454626,80.64253172224045 64.53308489161063,84.8375536441074 50.00000019557682,84.8375536441074 zm0,-16.48977475169844 c-14.533084696033814,0 -24.663638848969438,-4.195021921866946 -24.663638848969438,-7.954574440079883 V47.09687199409336 C29.912468362730948,50.52256463617156 38.95422463941648,52.77248988838392 50.00000019557682,52.77248988838392 S70.08753202842269,50.52256463617156 74.66363904454626,47.09687199409336 v13.296332458235716 C74.66363904454626,64.15275697054201 64.53308489161063,68.34777889240897 50.00000019557682,68.34777889240897 zm0,-18.478418361718415 c-14.533084696033814,0 -24.663638848969438,-4.195021921866946 -24.663638848969438,-7.954574440079883 V28.226531169086343 C29.912468362730948,31.72480204510687 38.95422463941648,34.03278988447312 50.00000019557682,34.03278988447312 S70.08753202842269,31.72480204510687 74.66363904454626,28.226531169086343 v13.630192334370454 C74.66363904454626,45.64530731524667 64.53308489161063,49.86936053069054 50.00000019557682,49.86936053069054 z" id="svg_4"/></g></svg>