<svg width="75" height="75" viewBox="0 0 75 75" xmlns="http://www.w3.org/2000/svg" xmlns:xlink="http://www.w3.org/1999/xlink" overflow="hidden"><defs><linearGradient x1="-20.83" y1="131.69" x2="-20.83" y2="-18.31" gradientUnits="userSpaceOnUse" id="Pink_Gradient" gradientTransform="matrix(0.707107 0.707107 -0.707107 0.707107 92.31 12.14)"><stop offset="0" stop-color="#B0084D"/><stop offset="1" stop-color="#FF4F8B"/></linearGradient></defs><g id="Example"><rect x="0" y="0" width="75" height="75" id="Green_Gradient" fill="url(#Pink_Gradient)"/><path d="M21.89 53.76C24.6334 52.0017 25.4319 48.3524 23.6736 45.609 22.0304 43.0452 18.7059 42.1532 16 43.55L12.5 37.55 18.29 27.55 16.56 26.55 10.48 37C10.3014 37.3094 10.3014 37.6906 10.48 38L14.37 44.74C12.1111 47.0961 12.19 50.8373 14.5461 53.0961 15.6424 54.1472 17.1013 54.7359 18.62 54.74 19.1021 54.7363 19.582 54.6758 20.05 54.56L23.24 60.08C23.4176 60.3875 23.7449 60.5779 24.1 60.58L36.5 60.58 36.5 58.58 24.68 58.58ZM18.62 52.76C16.4606 52.76 14.71 51.0094 14.71 48.85 14.71 46.6906 16.4606 44.94 18.62 44.94 20.7794 44.94 22.53 46.6906 22.53 48.85 22.519 51.0032 20.7733 52.7445 18.62 52.75ZM64.52 37 60.72 30.42C63.3336 28.4741 63.8749 24.7778 61.929 22.1642 60.2962 19.9711 57.3706 19.1872 54.86 20.27L51.76 14.91C51.5824 14.6025 51.2551 14.4121 50.9 14.41L38.5 14.41 38.5 16.41 50.32 16.41 53.18 21.41C50.7709 23.6123 50.6033 27.3505 52.8055 29.7596 54.3557 31.4554 56.7482 32.099 58.94 31.41L62.5 37.5 57.5 46.15 59.24 47.15 64.52 38C64.6986 37.6906 64.6986 37.3094 64.52 37ZM57.19 29.6C55.0306 29.6 53.28 27.8494 53.28 25.69 53.28 23.5306 55.0306 21.78 57.19 21.78 59.3494 21.78 61.1 23.5306 61.1 25.69 61.1 27.8494 59.3494 29.6 57.19 29.6ZM51.19 53.68C50.4714 53.6832 49.7595 53.8188 49.09 54.08L44.84 46.91 44.62 47.04 49.84 38.04C50.0186 37.7306 50.0186 37.3494 49.84 37.04L44.1 27C43.9224 26.6925 43.5951 26.5021 43.24 26.5L32.73 26.5 32.73 26.5 28.88 19.9C31.3542 17.7797 31.6411 14.055 29.5208 11.5808 27.4004 9.10655 23.6758 8.81967 21.2015 10.94 18.7273 13.0604 18.4404 16.785 20.5608 19.2592 21.6838 20.5697 23.3242 21.3227 25.05 21.32 25.7717 21.3146 26.4864 21.1791 27.16 20.92L30.79 27.06 25.05 37C24.8714 37.3094 24.8714 37.6906 25.05 38L30.83 48C31.0076 48.3075 31.3349 48.4979 31.69 48.5L43.24 48.5C43.3197 48.5096 43.4003 48.5096 43.48 48.5L47.41 55.13C44.9413 57.2483 44.6572 60.9668 46.7756 63.4355 48.8939 65.9042 52.6124 66.1883 55.0811 64.07 57.5498 61.9516 57.8338 58.2331 55.7155 55.7644 54.593 54.4563 52.9538 53.7055 51.23 53.71ZM25.05 19.32C22.8907 19.2979 21.1581 17.5295 21.1802 15.3702 21.2023 13.2109 22.9707 11.4783 25.13 11.5004 27.2736 11.5223 28.9999 13.2662 29 15.41 28.9945 17.5749 27.2351 19.3256 25.0701 19.3201 25.0634 19.3201 25.0567 19.32 25.05 19.32ZM42.66 46.5 32.27 46.5 27.07 37.5 32.27 28.5 42.66 28.5 47.86 37.5ZM51.23 63.5C49.0706 63.5 47.32 61.7494 47.32 59.59 47.32 57.4306 49.0706 55.68 51.23 55.68 53.3894 55.68 55.14 57.4306 55.14 59.59 55.1345 61.7472 53.3872 63.4945 51.23 63.5Z" fill="#FFFFFF"/></g></svg>